<svg width="598" height="391" viewBox="0 0 598 391" fill="none" xmlns="http://www.w3.org/2000/svg">
<g clip-path="url(#clip0_2_21)">
<path d="M0 0H598V391H0V0Z" fill="#FBC2C1"/>
<path d="M450.653 191.939C450.653 178.952 441.623 168.339 430.44 168.339C419.318 168.339 410.228 178.883 410.228 191.939H450.653Z" fill="white"/>
<path d="M489.583 191.939C489.583 178.952 480.553 168.339 469.37 168.339C458.188 168.339 449.158 178.883 449.158 191.939H489.583Z" fill="white"/>
<path d="M108.298 298.487H477.862C478.28 298.487 478.579 298.068 478.579 297.649C478.579 297.23 478.221 296.811 477.862 296.811H108.358C107.939 296.811 107.64 297.23 107.64 297.649C107.64 298.068 107.879 298.487 108.298 298.487Z" fill="#0D234B"/>
<path d="M321.485 123.793C321.485 110.807 312.455 100.194 301.272 100.194C290.09 100.194 281.06 110.737 281.06 123.793H321.485Z" fill="white"/>
<path d="M209.36 233.483L208.104 228.805L200.988 224.895C199.493 224.057 197.818 223.638 196.144 223.638C194.051 223.638 192.317 225.663 192.317 228.107V233.483H209.36Z" fill="#005D92"/>
<path d="M195.845 298.277C186.828 298.277 179.52 289.743 179.52 279.216C179.52 268.689 186.828 260.155 195.845 260.155C204.861 260.155 212.17 268.689 212.17 279.216C212.17 289.743 204.861 298.277 195.845 298.277Z" fill="#0D234B"/>
<path d="M341.996 298.277C332.98 298.277 325.671 289.743 325.671 279.216C325.671 268.689 332.98 260.155 341.996 260.155C351.013 260.155 358.322 268.689 358.322 279.216C358.322 289.743 351.013 298.277 341.996 298.277Z" fill="#0D234B"/>
<path d="M253.193 283.615C253.492 282.218 253.612 280.752 253.612 279.286C253.612 268.743 246.316 260.224 237.286 260.224C228.257 260.224 220.961 268.743 220.961 279.286C220.961 280.612 221.081 281.869 221.32 283.126C221.38 283.266 221.38 283.475 221.439 283.615" fill="#0D234B"/>
<path d="M236.509 283.615H380.866V154.515H250.383C242.728 154.515 236.509 161.776 236.509 170.713V283.615Z" fill="#005D92"/>
<path d="M196.802 231.179H268.801V197.525H221.2C217.373 197.525 213.785 199.829 211.752 203.599L196.802 231.179Z" fill="#005D92"/>
<path d="M164.988 283.615H244.343V231.179H196.862L171.925 240.116C167.799 241.582 164.988 246.051 164.988 251.078V283.615Z" fill="#005D92"/>
<path d="M239.858 231.179H279.445V204.228C279.445 200.527 276.874 197.595 273.764 197.595H265.034C260.728 197.595 256.721 200.178 254.449 204.367L239.858 231.179Z" fill="#00A0D6"/>
<path d="M207.984 283.615H279.445V231.179H239.858L214.921 240.116C210.795 241.582 207.984 246.051 207.984 251.078V283.615Z" fill="#00A0D6"/>
<path d="M290.867 283.615H434.327V170.713C434.327 161.776 428.108 154.515 420.454 154.515H290.807V283.615H290.867Z" fill="#00A0D6"/>
<path d="M434.327 170.713V273.56H345.285C328.362 261.272 317.06 239.348 317.06 214.352C317.06 188.937 328.721 166.734 346.122 154.515H420.514C428.108 154.515 434.327 161.776 434.327 170.713Z" fill="#005D92"/>
<path d="M374.229 283.615H415.67V278.308C415.67 264.972 406.401 254.08 394.919 254.08C383.498 254.08 374.169 264.902 374.169 278.308V283.615H374.229Z" fill="#0D234B"/>
<path d="M158.59 285.151H439.829V278.588C439.829 275.795 437.915 273.56 435.523 273.56H162.895C160.503 273.56 158.59 275.795 158.59 278.588V285.151Z" fill="#0D234B"/>
<path d="M394.979 298.277C385.962 298.277 378.654 289.743 378.654 279.216C378.654 268.689 385.962 260.155 394.979 260.155C403.995 260.155 411.304 268.689 411.304 279.216C411.304 289.743 403.995 298.277 394.979 298.277Z" fill="#0D234B"/>
<path d="M395.099 287.036C391.399 287.036 388.401 283.535 388.401 279.216C388.401 274.897 391.399 271.396 395.099 271.396C398.798 271.396 401.796 274.897 401.796 279.216C401.796 283.535 398.798 287.036 395.099 287.036Z" fill="#005D92"/>
<path d="M202.363 231.179H273.047V204.437H220.662C218.449 204.437 216.416 205.764 215.22 207.928L202.363 231.179Z" fill="#0D234B"/>
<path d="M301.332 171.551H427.749C428.168 171.551 428.467 171.132 428.467 170.713C428.467 170.294 428.108 169.876 427.749 169.876H301.272C300.854 169.876 300.555 170.294 300.555 170.713C300.555 171.132 300.914 171.551 301.332 171.551Z" fill="#0D234B"/>
<path d="M242.908 171.551H284.409C284.827 171.551 285.126 171.132 285.126 170.713C285.126 170.294 284.768 169.876 284.409 169.876H242.908C242.489 169.876 242.19 170.294 242.19 170.713C242.19 171.132 242.489 171.551 242.908 171.551Z" fill="#0D234B"/>
<path d="M274.362 204.367V231.179H268.801H239.858L254.389 204.367H274.362Z" fill="#005D92"/>
<path d="M223.413 283.615H264.854V278.308C264.854 264.972 255.585 254.08 244.104 254.08C232.682 254.08 223.353 264.902 223.353 278.308V283.615H223.413Z" fill="#0D234B"/>
<path d="M244.163 298.277C235.147 298.277 227.838 289.743 227.838 279.216C227.838 268.689 235.147 260.155 244.163 260.155C253.179 260.155 260.489 268.689 260.489 279.216C260.489 289.743 253.179 298.277 244.163 298.277Z" fill="#0D234B"/>
<path d="M244.163 287.036C240.464 287.036 237.466 283.535 237.466 279.216C237.466 274.897 240.464 271.396 244.163 271.396C247.863 271.396 250.861 274.897 250.861 279.216C250.861 283.535 247.863 287.036 244.163 287.036Z" fill="#005D92"/>
<path d="M205.234 265.95H209.121C211.812 265.95 213.964 263.436 213.964 260.294C213.964 257.152 211.812 254.639 209.121 254.639H205.234C202.543 254.639 200.39 257.152 200.39 260.294C200.39 263.436 202.602 265.95 205.234 265.95Z" fill="#8EDDF9"/>
<path d="M164.988 265.88H169.114C171.805 265.88 173.958 263.366 173.958 260.224C173.958 257.083 171.805 254.569 169.114 254.569H164.988" fill="#8EDDF9"/>
<path d="M268.143 242.42H271.97C273.286 242.42 274.303 241.163 274.303 239.697C274.303 238.161 273.226 236.974 271.97 236.974H268.143C266.828 236.974 265.811 238.231 265.811 239.697C265.811 241.163 266.887 242.42 268.143 242.42Z" fill="#0D234B"/>
<path d="M239.858 231.179L241.114 228.805L248.23 224.895C249.725 224.057 251.399 223.638 253.074 223.638C255.167 223.638 256.901 225.663 256.901 228.107V231.109H239.858V231.179Z" fill="#0D234B"/>
<path d="M427.51 267.346H434.327V265.601H427.51C425.896 265.601 424.64 263.855 424.64 261.691C424.64 259.526 425.955 257.781 427.51 257.781H434.327V256.035H427.51C425.118 256.035 423.145 258.549 423.145 261.691C423.145 264.833 425.118 267.346 427.51 267.346Z" fill="#0D234B"/>
<path d="M296.907 171.551H296.967C297.385 171.551 297.684 171.132 297.684 170.713C297.684 170.294 297.326 169.876 296.967 169.876H296.907C296.488 169.876 296.189 170.294 296.189 170.713C296.189 171.132 296.548 171.551 296.907 171.551Z" fill="#0D234B"/>
<path d="M481.749 298.487H481.809C482.227 298.487 482.526 298.068 482.526 297.649C482.526 297.23 482.167 296.811 481.809 296.811H481.749C481.33 296.811 481.031 297.23 481.031 297.649C481.031 298.068 481.33 298.487 481.749 298.487Z" fill="#0D234B"/>
<path d="M130.603 181.187C130.603 169.596 122.59 160.24 112.663 160.24C102.736 160.24 94.7233 169.596 94.7233 181.187H130.603Z" fill="white"/>
<path d="M165.168 181.187C165.168 169.596 157.154 160.24 147.228 160.24C137.301 160.24 129.288 169.596 129.288 181.187H165.168Z" fill="white"/>
<path d="M200.808 159.053L217.134 134.336C227.539 118.487 217.911 95.5855 200.808 95.5855C183.706 95.5855 174.078 118.487 184.483 134.336L200.808 159.053Z" fill="#F06365"/>
<path d="M200.808 131.334C195.359 131.334 190.941 126.176 190.941 119.814C190.941 113.451 195.359 108.293 200.808 108.293C206.258 108.293 210.675 113.451 210.675 119.814C210.675 126.176 206.258 131.334 200.808 131.334Z" fill="#FFC8A3"/>
</g>
<defs>
<clipPath id="clip0_2_21">
<path d="M598 0H120C53.7258 0 0 53.7258 0 120V271C0 337.274 53.7258 391 120 391H598V0Z" fill="white"/>
</clipPath>
</defs>
</svg>
